<svg width="62" height="50" viewBox="0 0 62 50" fill="none" xmlns="http://www.w3.org/2000/svg" xmlns:xlink="http://www.w3.org/1999/xlink">
<g style="isolation:isolate">
<path d="M0.942,15.56C0.942,7.472 5.307,0.916 10.691,0.916L44.811,0.916C50.194,0.916 54.559,7.472 54.559,15.56L54.559,33.865C54.559,41.953 50.194,48.51 44.811,48.51L10.691,48.51C5.307,48.51 0.942,41.953 0.942,33.865L0.942,15.56Z" clip-rule="evenodd" fill-rule="evenodd" fill="#222227"/>
</g>
<g style="isolation:isolate">
<path d="M56.996,18.517L56.996,33.374C58.985,32.115 60.279,29.188 60.279,25.945C60.279,22.702 58.985,19.775 56.996,18.517Z" fill="#222227"/>
</g>
<path d="M13.392,37.526L20.711,16.486L20.711,16.164L12.047,16.164L12.047,11.713L24.328,11.713L24.328,16.218L17.152,37.526L13.392,37.526Z" fill="#FFFFFF"/>
<path d="M34.078,38.188C32.832,38.188 31.722,37.789 30.746,36.99C29.778,36.192 29,35.036 28.413,33.522C27.453,31.305 26.973,28.404 26.973,24.816C26.973,20.538 27.608,17.177 28.877,14.734C30.147,12.291 31.9,11.069 34.137,11.069C35.772,11.069 37.164,11.731 38.314,13.054C39.473,14.377 40.175,16.117 40.421,18.274L36.862,18.274C36.696,17.427 36.363,16.754 35.863,16.254C35.371,15.753 34.788,15.503 34.114,15.503C32.939,15.503 32.015,16.295 31.341,17.88C30.674,19.453 30.361,21.581 30.401,24.262L30.615,24.262C31.004,23.047 31.579,22.111 32.34,21.456C33.11,20.788 33.995,20.455 34.994,20.455C36.62,20.455 37.969,21.265 39.04,22.886C40.111,24.507 40.647,26.55 40.647,29.017C40.647,31.699 40.032,33.898 38.802,35.614C37.572,37.33 35.998,38.188 34.078,38.188ZM31.829,32.432C32.424,33.314 33.162,33.754 34.042,33.754C34.923,33.754 35.661,33.319 36.256,32.45C36.858,31.568 37.16,30.477 37.16,29.178C37.16,27.867 36.866,26.783 36.279,25.925C35.692,25.055 34.95,24.62 34.054,24.62C33.158,24.62 32.412,25.049 31.817,25.907C31.23,26.765 30.936,27.837 30.936,29.125C30.936,30.435 31.234,31.538 31.829,32.432Z" fill="#FFFFFF"/>
</svg>
