<svg width="44" height="44" viewBox="0 0 44 44" fill="none" xmlns="http://www.w3.org/2000/svg" xmlns:xlink="http://www.w3.org/1999/xlink">
<path d="M23.58,11.477C23.58,9.532 24.629,7.956 25.923,7.956L28.266,7.956C29.561,7.956 30.61,9.532 30.61,11.477L30.61,39.639C30.61,41.583 29.561,43.159 28.266,43.159L25.923,43.159C24.629,43.159 23.58,41.583 23.58,39.639L23.58,11.477Z" fill="#222227"/>
<path d="M35.297,4.436C35.297,2.492 36.346,0.916 37.64,0.916L39.983,0.916C41.278,0.916 42.327,2.492 42.327,4.436L42.327,39.639C42.327,41.583 41.278,43.159 39.983,43.159L37.64,43.159C36.346,43.159 35.297,41.583 35.297,39.639L35.297,4.436Z" fill="#222227"/>
<path d="M11.862,23.798C11.862,21.853 12.912,20.277 14.206,20.277L16.549,20.277C17.843,20.277 18.893,21.853 18.893,23.798L18.893,39.639C18.893,41.583 17.843,43.159 16.549,43.159L14.206,43.159C12.912,43.159 11.862,41.583 11.862,39.639L11.862,23.798Z" fill="#222227"/>
<path d="M0.146,32.598C0.146,30.654 1.195,29.078 2.489,29.078L4.832,29.078C6.127,29.078 7.176,30.654 7.176,32.598L7.176,39.639C7.176,41.583 6.127,43.159 4.832,43.159L2.489,43.159C1.195,43.159 0.146,41.583 0.146,39.639L0.146,32.598Z" fill="#222227"/>
</svg>
