<svg width="74" height="40" viewBox="0 0 74 40" fill="none" xmlns="http://www.w3.org/2000/svg" xmlns:xlink="http://www.w3.org/1999/xlink">
<path d="M10.244,39.815C7.591,39.815 5.413,38.724 3.711,36.543C2.01,34.363 1.105,31.556 0.998,28.124L5.318,28.124C5.461,29.893 5.99,31.324 6.906,32.414C7.823,33.504 8.947,34.05 10.28,34.05C11.791,34.05 13.011,33.353 13.939,31.958C14.879,30.546 15.35,28.687 15.35,26.381C15.35,24.075 14.879,22.207 13.939,20.777C13.011,19.329 11.803,18.605 10.316,18.605C9.269,18.605 8.334,18.935 7.513,19.597C6.704,20.258 6.062,21.197 5.586,22.412L1.409,22.412L2.747,0.156L18.259,0.156L18.259,6.002L6.317,6.002L5.693,16.862L5.996,16.862C7.186,14.448 9.001,13.242 11.44,13.242C13.88,13.242 15.879,14.457 17.438,16.888C19.009,19.32 19.794,22.43 19.794,26.22C19.794,30.26 18.914,33.54 17.152,36.061C15.403,38.564 13.1,39.815 10.244,39.815Z" fill="#222227"/>
<path d="M27.55,34.747C26.717,34.747 26.032,34.345 25.497,33.54C24.961,32.736 24.693,31.726 24.693,30.51C24.693,29.277 24.961,28.267 25.497,27.48C26.032,26.676 26.717,26.274 27.55,26.274C28.394,26.274 29.079,26.676 29.602,27.48C30.138,28.267 30.406,29.277 30.406,30.51C30.406,31.726 30.138,32.736 29.602,33.54C29.079,34.345 28.394,34.747 27.55,34.747ZM27.55,14.636C26.717,14.636 26.032,14.243 25.497,13.456C24.961,12.652 24.693,11.642 24.693,10.426C24.693,9.193 24.961,8.183 25.497,7.396C26.032,6.592 26.717,6.189 27.55,6.189C28.394,6.189 29.079,6.592 29.602,7.396C30.138,8.183 30.406,9.193 30.406,10.426C30.406,11.642 30.138,12.652 29.602,13.456C29.079,14.243 28.394,14.636 27.55,14.636Z" fill="#222227"/>
<path d="M42.07,38.85L42.07,7.128L41.767,7.128L35.358,13.885L35.358,7.235L42.088,0.156L46.675,0.156L46.675,38.85L42.07,38.85Z" fill="#222227"/>
<path d="M59.5,21.688L59.5,16.325L62.642,16.325C63.951,16.325 65.016,15.789 65.837,14.716C66.658,13.626 67.069,12.214 67.069,10.48C67.069,8.764 66.664,7.396 65.855,6.377C65.058,5.34 63.987,4.822 62.642,4.822C61.309,4.822 60.226,5.349 59.393,6.404C58.572,7.459 58.12,8.898 58.036,10.721L53.735,10.721C53.854,7.164 54.722,4.357 56.341,2.301C57.959,0.228 60.107,-0.809 62.785,-0.809C65.284,-0.809 67.36,0.174 69.014,2.14C70.68,4.089 71.513,6.547 71.513,9.514C71.513,11.785 71.091,13.724 70.246,15.333C69.413,16.942 68.282,17.97 66.854,18.417L66.854,18.873C68.616,19.177 70.002,20.169 71.013,21.849C72.037,23.529 72.549,25.657 72.549,28.231C72.549,31.556 71.62,34.318 69.764,36.517C67.919,38.715 65.599,39.815 62.802,39.815C60.03,39.815 57.769,38.751 56.019,36.624C54.282,34.497 53.354,31.663 53.235,28.124L57.644,28.124C57.739,29.911 58.257,31.341 59.197,32.414C60.137,33.469 61.351,33.996 62.838,33.996C64.314,33.996 65.516,33.424 66.444,32.28C67.384,31.118 67.854,29.625 67.854,27.802C67.854,25.907 67.396,24.414 66.48,23.324C65.563,22.233 64.314,21.688 62.731,21.688L59.5,21.688Z" fill="#222227"/>
</svg>
