<svg width="40" height="44" viewBox="0 0 40 44" fill="none" xmlns="http://www.w3.org/2000/svg" xmlns:xlink="http://www.w3.org/1999/xlink">
<path d="M19.683,10.025C25.463,10.025 31.022,13.431 35.211,19.537C35.526,20.009 36.03,20.003 36.341,19.524L39.357,14.858C39.514,14.615 39.602,14.286 39.6,13.943C39.599,13.601 39.509,13.274 39.35,13.034C28.355,-3.124 11.009,-3.124 0.014,13.034C-0.145,13.274 -0.236,13.601 -0.237,13.943C-0.239,14.285 -0.151,14.615 0.006,14.858L3.022,19.524C3.333,20.004 3.837,20.01 4.153,19.537C8.342,13.43 13.902,10.025 19.683,10.025ZM19.766,24.112C22.941,24.112 26.004,25.922 28.358,29.191C28.676,29.654 29.178,29.644 29.488,29.168L32.5,24.501C32.659,24.257 32.747,23.925 32.745,23.58C32.742,23.235 32.65,22.905 32.488,22.666C25.319,12.441 14.218,12.441 7.049,22.666C6.887,22.905 6.795,23.235 6.793,23.58C6.791,23.925 6.879,24.257 7.038,24.501L10.049,29.168C10.359,29.644 10.861,29.654 11.179,29.191C13.532,25.924 16.592,24.114 19.766,24.112ZM25.89,33.22C25.895,33.566 25.806,33.9 25.645,34.142L20.435,42.205C20.282,42.441 20.074,42.575 19.857,42.575C19.64,42.575 19.432,42.441 19.279,42.205L14.068,34.142C13.907,33.9 13.818,33.566 13.823,33.22C13.828,32.874 13.926,32.546 14.093,32.314C17.421,27.999 22.294,27.999 25.621,32.314C25.788,32.547 25.886,32.874 25.89,33.22Z" clip-rule="evenodd" fill-rule="evenodd" fill="#222227"/>
</svg>
